<svg xmlns="http://www.w3.org/2000/svg" width="14" height="14" viewBox="0 0 14 14" fill="none">
  <path d="M6.17797 4.62261C6.0743 4.62261 5.97062 4.58443 5.88877 4.50259L4.1482 2.76201L2.40762 4.50259C2.24938 4.66082 1.98748 4.66082 1.82925 4.50259C1.67101 4.34435 1.67101 4.08245 1.82925 3.92422L3.85903 1.89444C3.93541 1.81805 4.03907 1.77441 4.1482 1.77441C4.25732 1.77441 4.36101 1.81805 4.4374 1.89444L6.46714 3.92422C6.62538 4.08245 6.62538 4.34435 6.46714 4.50259C6.3853 4.58443 6.28165 4.62261 6.17797 4.62261Z" fill="#0E121B"/>
  <path d="M4.14806 12.4143C3.92435 12.4143 3.73883 12.2288 3.73883 12.0051V2.18364C3.73883 1.95993 3.92435 1.77441 4.14806 1.77441C4.37177 1.77441 4.55728 1.95993 4.55728 2.18364V12.0051C4.55728 12.2288 4.37177 12.4143 4.14806 12.4143Z" fill="#0E121B"/>
  <path d="M9.90448 12.4144C9.79536 12.4144 9.69167 12.3707 9.61528 12.2943L7.58553 10.2646C7.4273 10.1063 7.4273 9.84441 7.58553 9.68618C7.74377 9.52795 8.00567 9.52795 8.16391 9.68618L9.90448 11.4268L11.645 9.68618C11.8033 9.52795 12.0652 9.52795 12.2234 9.68618C12.3817 9.84441 12.3817 10.1063 12.2234 10.2646L10.1937 12.2943C10.1173 12.3707 10.0082 12.4144 9.90448 12.4144Z" fill="#0E121B"/>
  <path d="M9.89909 12.4143C9.67538 12.4143 9.48987 12.2288 9.48987 12.0051V2.18364C9.48987 1.95993 9.67538 1.77441 9.89909 1.77441C10.1228 1.77441 10.3083 1.95993 10.3083 2.18364V12.0051C10.3083 12.2288 10.1283 12.4143 9.89909 12.4143Z" fill="#0E121B"/>
</svg>