<svg xmlns="http://www.w3.org/2000/svg" width="28" height="28" viewBox="0 0 28 28" fill="none">
  <g clip-path="url(#clip0_2024_4435)">
    <path d="M14.0001 1.5V26.5M19.6819 6.04545H11.1592C10.1043 6.04545 9.09268 6.46449 8.3468 7.21037C7.60092 7.95625 7.18188 8.96789 7.18188 10.0227C7.18188 11.0776 7.60092 12.0892 8.3468 12.8351C9.09268 13.581 10.1043 14 11.1592 14H16.841C17.8958 14 18.9074 14.419 19.6533 15.1649C20.3992 15.9108 20.8182 16.9224 20.8182 17.9773C20.8182 19.0321 20.3992 20.0437 19.6533 20.7896C18.9074 21.5355 17.8958 21.9545 16.841 21.9545H7.18188" stroke="#335CFF" stroke-width="2.27273" stroke-linecap="round" stroke-linejoin="round"/>
  </g>
  <defs>
    <clipPath id="clip0_2024_4435">
      <rect width="27.2727" height="27.2727" fill="white" transform="translate(0.363647 0.363647)"/>
    </clipPath>
  </defs>
</svg>