<svg xmlns="http://www.w3.org/2000/svg" width="14" height="14" viewBox="0 0 14 14" fill="none">
  <path d="M12.7778 4.36069H9.50401C9.2803 4.36069 9.09479 4.17517 9.09479 3.95146C9.09479 3.72775 9.2803 3.54224 9.50401 3.54224H12.7778C13.0015 3.54224 13.187 3.72775 13.187 3.95146C13.187 4.17517 13.0015 4.36069 12.7778 4.36069Z" fill="#475467"/>
  <path d="M4.0477 4.36069H1.86516C1.64145 4.36069 1.45593 4.17517 1.45593 3.95146C1.45593 3.72775 1.64145 3.54224 1.86516 3.54224H4.0477C4.27141 3.54224 4.45693 3.72775 4.45693 3.95146C4.45693 4.17517 4.27141 4.36069 4.0477 4.36069Z" fill="#475467"/>
  <path d="M6.2302 6.27047C4.95342 6.27047 3.91125 5.2283 3.91125 3.95152C3.91125 2.67473 4.95342 1.63257 6.2302 1.63257C7.50699 1.63257 8.54915 2.67473 8.54915 3.95152C8.54915 5.2283 7.50699 6.27047 6.2302 6.27047ZM6.2302 2.45102C5.40084 2.45102 4.72971 3.12215 4.72971 3.95152C4.72971 4.78088 5.40084 5.45201 6.2302 5.45201C7.05957 5.45201 7.7307 4.78088 7.7307 3.95152C7.7307 3.12215 7.05957 2.45102 6.2302 2.45102Z" fill="#475467"/>
  <path d="M12.7779 10.3628H10.5953C10.3716 10.3628 10.1861 10.1772 10.1861 9.95354C10.1861 9.72983 10.3716 9.54431 10.5953 9.54431H12.7779C13.0016 9.54431 13.1871 9.72983 13.1871 9.95354C13.1871 10.1772 13.0016 10.3628 12.7779 10.3628Z" fill="#475467"/>
  <path d="M5.13897 10.3628H1.86516C1.64145 10.3628 1.45593 10.1772 1.45593 9.95354C1.45593 9.72983 1.64145 9.54431 1.86516 9.54431H5.13897C5.36268 9.54431 5.54819 9.72983 5.54819 9.95354C5.54819 10.1772 5.36268 10.3628 5.13897 10.3628Z" fill="#475467"/>
  <path d="M8.41276 12.2724C7.13597 12.2724 6.09381 11.2303 6.09381 9.95347C6.09381 8.67668 7.13597 7.63452 8.41276 7.63452C9.68955 7.63452 10.7317 8.67668 10.7317 9.95347C10.7317 11.2303 9.68955 12.2724 8.41276 12.2724ZM8.41276 8.45297C7.58339 8.45297 6.91226 9.1241 6.91226 9.95347C6.91226 10.7828 7.58339 11.454 8.41276 11.454C9.24212 11.454 9.91326 10.7828 9.91326 9.95347C9.91326 9.1241 9.24212 8.45297 8.41276 8.45297Z" fill="#475467"/>
</svg>