<svg width="198" height="48" viewBox="0 0 198 48" fill="none" xmlns="http://www.w3.org/2000/svg">
<path d="M31.229 2H14.3712L0.800049 15.5711V32.4289L14.3712 46H31.229L44.8 32.4289V15.5711L31.229 2ZM16.7037 32.641L8.00971 23.947L16.7037 15.253C19.9904 11.9663 25.3977 11.9663 28.6844 15.253L37.3784 23.947L28.6844 32.641C25.3977 35.9277 20.0964 35.9277 16.7037 32.641Z" fill="#444CE7"/>
<path d="M64.1401 34.2401C66.8401 34.2401 69.0601 32.8601 69.7501 30.7901V34.0001H73.7401V25.9001C73.7401 24.0701 72.3001 22.5101 70.3501 22.5101H64.6501V25.9001H68.7001C69.2101 25.9001 69.5401 26.2301 69.5401 26.7401C69.5401 28.6901 66.9601 30.5801 64.3501 30.5801C60.8701 30.5801 58.1101 27.8501 58.1101 23.5001C58.1101 19.1501 60.8701 16.6301 64.4401 16.6301C67.1401 16.6301 69.0001 18.1001 69.3301 20.3501H73.8001C73.5301 15.8501 69.7501 12.7601 64.4701 12.7601C58.9201 12.7601 53.8201 16.3301 53.8201 23.5001C53.8201 30.6701 58.7701 34.2401 64.1401 34.2401Z" fill="#101828"/>
<path d="M75.4529 34.0001H79.6229V12.3101H75.4529V34.0001Z" fill="#101828"/>
<path d="M88.618 34.2401C93.268 34.2401 96.598 30.9401 96.598 26.4401C96.598 21.9401 93.268 18.6401 88.618 18.6401C83.968 18.6401 80.638 21.9401 80.638 26.4401C80.638 30.9401 83.968 34.2401 88.618 34.2401ZM88.618 30.6401C86.368 30.6401 84.838 28.9301 84.838 26.4401C84.838 23.9201 86.368 22.2101 88.618 22.2101C90.868 22.2101 92.398 23.9201 92.398 26.4401C92.398 28.9301 90.868 30.6401 88.618 30.6401Z" fill="#101828"/>
<path d="M105.929 34.2401C110.399 34.2401 113.069 31.1501 113.069 26.4401C113.069 21.7301 110.399 18.6401 105.989 18.6401C104.099 18.6401 102.629 19.3601 101.789 20.4701V12.3101H97.6189V34.0001H101.789V32.3501C102.629 33.5201 104.189 34.2401 105.929 34.2401ZM105.269 30.6401C103.019 30.6401 101.549 28.9601 101.549 26.4401C101.549 23.8901 103.019 22.2101 105.269 22.2101C107.459 22.2101 108.959 23.8901 108.959 26.4401C108.959 28.9601 107.459 30.6401 105.269 30.6401Z" fill="#101828"/>
<path d="M120.049 18.6401C115.909 18.6401 113.449 21.0701 113.269 24.1001H116.989C117.049 22.8401 117.979 21.7001 119.809 21.7001C121.519 21.7001 122.509 22.5701 122.509 23.8301C122.509 24.4601 122.119 24.9401 121.369 24.9401H118.819C115.519 24.9401 113.299 26.7401 113.299 29.7101C113.299 32.2901 115.309 34.2401 118.249 34.2401C120.319 34.2401 121.999 33.3101 122.509 31.9001V34.0001H126.649V24.2801C126.649 20.8601 123.859 18.6401 120.049 18.6401ZM119.299 31.2101C118.129 31.2101 117.289 30.5201 117.289 29.5301C117.289 28.3601 118.189 27.5801 119.449 27.5801H122.509V27.7901C122.509 29.7101 121.339 31.2101 119.299 31.2101Z" fill="#101828"/>
<path d="M128.252 34.0001H132.422V12.3101H128.252V34.0001Z" fill="#101828"/>
<path d="M134.637 34.0001H143.217C147.657 34.0001 150.717 31.7201 150.717 27.7301C150.717 24.9701 149.097 23.2901 147.177 22.5401C148.407 21.8801 149.637 20.3801 149.637 18.4001C149.637 14.8901 146.787 13.0001 142.977 13.0001H134.637V34.0001ZM139.077 21.0101V16.5701H142.557C144.567 16.5701 145.467 17.3801 145.467 18.7901C145.467 20.2001 144.567 21.0101 142.647 21.0101H139.077ZM139.077 30.1001V24.8201H142.827C145.317 24.8201 146.427 25.7801 146.427 27.4901C146.427 29.2001 145.317 30.1001 142.827 30.1001H139.077Z" fill="#101828"/>
<path d="M157.971 18.6401C153.831 18.6401 151.371 21.0701 151.191 24.1001H154.911C154.971 22.8401 155.901 21.7001 157.731 21.7001C159.441 21.7001 160.431 22.5701 160.431 23.8301C160.431 24.4601 160.041 24.9401 159.291 24.9401H156.741C153.441 24.9401 151.221 26.7401 151.221 29.7101C151.221 32.2901 153.231 34.2401 156.171 34.2401C158.241 34.2401 159.921 33.3101 160.431 31.9001V34.0001H164.571V24.2801C164.571 20.8601 161.781 18.6401 157.971 18.6401ZM157.221 31.2101C156.051 31.2101 155.211 30.5201 155.211 29.5301C155.211 28.3601 156.111 27.5801 157.371 27.5801H160.431V27.7901C160.431 29.7101 159.261 31.2101 157.221 31.2101Z" fill="#101828"/>
<path d="M165.934 34.0001H170.134V25.7201C170.134 23.7701 171.424 22.3601 173.254 22.3601C174.994 22.3601 176.164 23.6801 176.164 25.5101V34.0001H180.364V24.5801C180.364 21.1001 178.144 18.6401 174.724 18.6401C172.654 18.6401 170.974 19.5101 170.134 20.9801V18.8801H165.934V34.0001Z" fill="#101828"/>
<path d="M192.334 34.0001H197.374L190.864 24.8201L196.894 18.8801H191.614L186.364 24.0401V12.3101H182.164V34.0001H186.364V29.2601L188.044 27.6101L192.334 34.0001Z" fill="#101828"/>
</svg>
