<svg width="146" height="48" viewBox="0 0 146 48" fill="none" xmlns="http://www.w3.org/2000/svg">
<g clip-path="url(#clip0_321_3113)">
<path d="M62.2183 25.249C62.2183 32.0955 56.8462 37.1406 50.2533 37.1406C43.6603 37.1406 38.2882 32.0955 38.2882 25.249C38.2882 18.3542 43.6603 13.3574 50.2533 13.3574C56.8462 13.3574 62.2183 18.3542 62.2183 25.249ZM56.9805 25.249C56.9805 20.9705 53.8669 18.0434 50.2533 18.0434C46.6396 18.0434 43.526 20.9708 43.526 25.249C43.526 29.4846 46.6396 32.4546 50.2533 32.4546C53.8669 32.4549 56.9805 29.4792 56.9805 25.249Z" fill="#FF4131"/>
<path d="M88.0306 25.249C88.0306 32.0955 82.6585 37.1406 76.0655 37.1406C69.4725 37.1406 64.1005 32.0955 64.1005 25.249C64.1005 18.3596 69.4725 13.3574 76.0655 13.3574C82.6582 13.3574 88.0306 18.3542 88.0306 25.249ZM82.7927 25.249C82.7927 20.9705 79.6792 18.0434 76.0655 18.0434C72.4518 18.0434 69.3383 20.9708 69.3383 25.249C69.3383 29.4846 72.4518 32.4546 76.0655 32.4546C79.6792 32.4549 82.7927 29.4792 82.7927 25.249Z" fill="#FFBC00"/>
<path d="M112.767 14.076V35.425C112.767 44.207 107.572 47.7937 101.431 47.7937C95.6507 47.7937 92.1713 43.9388 90.8592 40.7863L95.4193 38.8937C96.2313 40.8292 98.2211 43.1132 101.426 43.1132C105.357 43.1132 107.793 40.6951 107.793 36.1433V34.4331H107.61C106.438 35.8753 104.179 37.1352 101.329 37.1352C95.3655 37.1352 89.902 31.956 89.902 25.2919C89.902 18.5795 95.3655 13.3574 101.329 13.3574C104.174 13.3574 106.433 14.6173 107.61 16.0166H107.793V14.0811H112.767V14.076ZM108.164 25.2919C108.164 21.1046 105.362 18.0434 101.797 18.0434C98.1834 18.0434 95.1557 21.1046 95.1557 25.2919C95.1557 29.4363 98.1831 32.4546 101.797 32.4546C105.362 32.4549 108.164 29.4363 108.164 25.2919Z" fill="#0085F7"/>
<path d="M120.968 1.5625V36.4116H115.859V1.5625H120.968Z" fill="#00A94B"/>
<path d="M140.875 29.163L144.941 31.8651C143.629 33.8006 140.467 37.1352 135.003 37.1352C128.228 37.1352 123.167 31.9131 123.167 25.2436C123.167 18.1718 128.271 13.3521 134.417 13.3521C140.606 13.3521 143.634 18.263 144.624 20.9168L145.167 22.2679L129.222 28.8518C130.443 31.2377 132.341 32.4546 135.003 32.4546C137.67 32.4549 139.52 31.1465 140.875 29.163ZM128.362 24.8845L139.02 20.4721C138.434 18.987 136.67 17.9524 134.595 17.9524C131.933 17.9521 128.228 20.2951 128.362 24.8845Z" fill="#FF4131"/>
<path d="M18.9505 22.1556V17.1105H36.0027C36.1695 17.9898 36.2553 19.03 36.2553 20.1557C36.2553 23.9409 35.2174 28.6212 31.8728 31.9561C28.6193 35.3339 24.4625 37.1353 18.9559 37.1353C8.74922 37.1353 0.166748 28.8465 0.166748 18.6708C0.166748 8.49509 8.74922 0.206055 18.9559 0.206055C24.6024 0.206055 28.6247 2.4149 31.6468 5.29406L28.0761 8.85396C25.9091 6.82723 22.9728 5.25114 18.9505 5.25114C11.4971 5.25114 5.66797 11.2398 5.66797 18.6708C5.66797 26.1018 11.4971 32.0905 18.9505 32.0905C23.7848 32.0905 26.5381 30.155 28.3021 28.3965C29.7326 26.9703 30.6737 24.9331 31.0447 22.1505L18.9505 22.1556Z" fill="#0085F7"/>
</g>
<defs>
<clipPath id="clip0_321_3113">
<rect width="145" height="48" fill="white" transform="translate(0.166748)"/>
</clipPath>
</defs>
</svg>
