<svg width="41" height="40" viewBox="0 0 41 40" fill="none" xmlns="http://www.w3.org/2000/svg">
<path d="M17.5 31.622V26.6C17.5 24.6755 18.9925 23.162 21.2005 22.298C19.7765 21.7684 18.2692 21.4982 16.75 21.5C13.915 21.5 11.296 22.4255 9.1795 23.99C9.83576 25.846 10.9376 27.5125 12.3884 28.8432C13.8391 30.1739 15.5944 31.1281 17.5 31.622V31.622ZM30.82 26.129C30.2275 25.3295 28.255 24.5 25.75 24.5C22.741 24.5 20.5 25.6955 20.5 26.6V32C22.5818 32.0012 24.628 31.4605 26.4374 30.4311C28.2469 29.4017 29.7572 27.9191 30.82 26.129V26.129ZM16.825 19.25C17.7201 19.25 18.5786 18.8944 19.2115 18.2615C19.8444 17.6285 20.2 16.7701 20.2 15.875C20.2 14.9799 19.8444 14.1215 19.2115 13.4885C18.5786 12.8556 17.7201 12.5 16.825 12.5C15.9299 12.5 15.0714 12.8556 14.4385 13.4885C13.8056 14.1215 13.45 14.9799 13.45 15.875C13.45 16.7701 13.8056 17.6285 14.4385 18.2615C15.0714 18.8944 15.9299 19.25 16.825 19.25V19.25ZM25.75 20.75C26.5456 20.75 27.3087 20.4339 27.8713 19.8713C28.4339 19.3087 28.75 18.5456 28.75 17.75C28.75 16.9544 28.4339 16.1913 27.8713 15.6287C27.3087 15.0661 26.5456 14.75 25.75 14.75C24.9544 14.75 24.1913 15.0661 23.6287 15.6287C23.0661 16.1913 22.75 16.9544 22.75 17.75C22.75 18.5456 23.0661 19.3087 23.6287 19.8713C24.1913 20.4339 24.9544 20.75 25.75 20.75ZM20.5 35C12.2155 35 5.5 28.2845 5.5 20C5.5 11.7155 12.2155 5 20.5 5C28.7845 5 35.5 11.7155 35.5 20C35.5 28.2845 28.7845 35 20.5 35Z" fill="#525866"/>
</svg>
