<svg width="41" height="40" viewBox="0 0 41 40" fill="none" xmlns="http://www.w3.org/2000/svg">
<path d="M7 6.5H34C34.3978 6.5 34.7794 6.65804 35.0607 6.93934C35.342 7.22064 35.5 7.60218 35.5 8V32C35.5 32.3978 35.342 32.7794 35.0607 33.0607C34.7794 33.342 34.3978 33.5 34 33.5H7C6.60218 33.5 6.22064 33.342 5.93934 33.0607C5.65804 32.7794 5.5 32.3978 5.5 32V8C5.5 7.60218 5.65804 7.22064 5.93934 6.93934C6.22064 6.65804 6.60218 6.5 7 6.5V6.5ZM15.25 23V26H19V29H22V26H23.5C24.4946 26 25.4484 25.6049 26.1517 24.9017C26.8549 24.1984 27.25 23.2446 27.25 22.25C27.25 21.2554 26.8549 20.3016 26.1517 19.5983C25.4484 18.8951 24.4946 18.5 23.5 18.5H17.5C17.3011 18.5 17.1103 18.421 16.9697 18.2803C16.829 18.1397 16.75 17.9489 16.75 17.75C16.75 17.5511 16.829 17.3603 16.9697 17.2197C17.1103 17.079 17.3011 17 17.5 17H25.75V14H22V11H19V14H17.5C16.5054 14 15.5516 14.3951 14.8483 15.0983C14.1451 15.8016 13.75 16.7554 13.75 17.75C13.75 18.7446 14.1451 19.6984 14.8483 20.4017C15.5516 21.1049 16.5054 21.5 17.5 21.5H23.5C23.6989 21.5 23.8897 21.579 24.0303 21.7197C24.171 21.8603 24.25 22.0511 24.25 22.25C24.25 22.4489 24.171 22.6397 24.0303 22.7803C23.8897 22.921 23.6989 23 23.5 23H15.25Z" fill="#525866"/>
</svg>
