<svg width="41" height="40" viewBox="0 0 41 40" fill="none" xmlns="http://www.w3.org/2000/svg">
<path d="M17.5 31.9999H11.5V34.9999H8.5V31.9999H7C6.60218 31.9999 6.22064 31.8419 5.93934 31.5606C5.65804 31.2793 5.5 30.8977 5.5 30.4999V7.99991C5.5 7.60208 5.65804 7.22055 5.93934 6.93925C6.22064 6.65794 6.60218 6.49991 7 6.49991H17.5V4.38491C17.5001 4.27604 17.5238 4.16849 17.5696 4.06972C17.6154 3.97095 17.6822 3.88334 17.7652 3.81298C17.8483 3.74261 17.9457 3.69117 18.0507 3.66223C18.1556 3.63329 18.2656 3.62755 18.373 3.64541L34.246 6.29141C34.5963 6.34964 34.9145 6.53022 35.1441 6.80104C35.3737 7.07186 35.4998 7.41535 35.5 7.77041V10.9999H37V13.9999H35.5V24.4999H37V27.4999H35.5V30.7294C35.4998 31.0845 35.3737 31.428 35.1441 31.6988C34.9145 31.9696 34.5963 32.1502 34.246 32.2084L32.5 32.4994V34.9999H29.5V33.0004L18.373 34.8544C18.2656 34.8723 18.1556 34.8665 18.0507 34.8376C17.9457 34.8086 17.8483 34.7572 17.7652 34.6868C17.6822 34.6165 17.6154 34.5289 17.5696 34.4301C17.5238 34.3313 17.5001 34.2238 17.5 34.1149V31.9999ZM20.5 31.4599L32.5 29.4589V9.04091L20.5 7.04141V31.4584V31.4599ZM27.25 22.9999C26.008 22.9999 25 21.3199 25 19.2499C25 17.1799 26.008 15.4999 27.25 15.4999C28.492 15.4999 29.5 17.1799 29.5 19.2499C29.5 21.3199 28.492 22.9999 27.25 22.9999Z" fill="#525866"/>
</svg>
